<?xml version="1.0" standalone="no"?>
<!DOCTYPE svg PUBLIC "-//W3C//DTD SVG 20010904//EN"
 "http://www.w3.org/TR/2001/REC-SVG-20010904/DTD/svg10.dtd">
<svg version="1.0" xmlns="http://www.w3.org/2000/svg"
 width="1280.000000pt" height="968.000000pt" viewBox="0 0 1280.000000 968.000000"
 preserveAspectRatio="xMidYMid meet">
<g transform="translate(0.000000,968.000000) scale(0.100000,-0.100000)"
fill="#000000" stroke="none">
<path d="M7375 9419 c-382 -22 -749 -104 -1027 -230 -151 -69 -249 -129 -436
-268 -452 -336 -736 -754 -818 -1206 -25 -135 -25 -413 0 -538 54 -272 183
-474 391 -612 87 -58 278 -140 411 -177 114 -31 344 -31 461 0 265 69 494 259
584 483 61 151 83 350 59 535 -27 221 -93 352 -320 644 -130 167 -142 190
-142 287 0 55 7 95 21 133 35 93 117 201 169 222 42 16 308 22 403 9 105 -15
244 -61 328 -108 81 -45 199 -157 257 -244 117 -177 199 -434 235 -744 18
-147 18 -626 0 -770 -21 -176 -68 -419 -113 -575 -70 -251 -148 -442 -323
-792 -271 -540 -369 -799 -421 -1108 -21 -121 -20 -744 1 -776 19 -29 214
-238 228 -245 12 -5 468 9 474 15 2 1 12 101 23 222 34 382 83 632 150 763 38
76 130 191 211 264 35 32 264 191 508 354 461 306 583 393 736 524 102 86 252
240 337 344 140 173 285 425 358 623 115 316 157 752 105 1115 -64 457 -244
819 -572 1152 -418 425 -977 647 -1763 700 -240 16 -295 17 -515 4z"/>
<path d="M2875 5566 c-276 -63 -495 -283 -570 -573 -44 -168 18 -330 194 -503
168 -167 369 -266 703 -350 140 -35 174 -52 202 -99 l19 -33 -36 -33 c-22 -21
-40 -49 -47 -76 -26 -97 -54 -177 -80 -229 -15 -30 -38 -88 -49 -128 -18 -60
-32 -83 -76 -130 -32 -34 -58 -73 -65 -97 -7 -22 -25 -55 -41 -73 -33 -37 -34
-42 -17 -89 10 -27 10 -38 0 -53 -40 -65 42 -160 138 -160 41 0 62 40 37 68
-22 24 -21 34 3 55 13 11 20 29 20 51 0 45 16 86 33 86 24 0 49 37 42 60 -11
34 19 70 59 70 37 0 54 14 65 57 8 29 16 33 100 54 27 7 56 23 74 42 27 30 30
30 42 13 8 -10 25 -67 40 -126 27 -115 27 -113 -9 -245 -11 -37 -17 -96 -17
-156 0 -77 -4 -104 -20 -135 -53 -102 -210 -524 -298 -802 -43 -134 -43 -134
-136 -263 -87 -120 -166 -250 -269 -444 -155 -292 -195 -377 -212 -453 l-16
-73 23 -25 c32 -34 244 -137 357 -174 52 -16 124 -33 161 -36 84 -8 101 5 101
75 0 55 -7 66 -115 182 -75 80 -145 198 -145 243 0 15 14 54 31 88 45 90 299
495 371 591 60 81 319 583 418 810 38 87 61 119 75 105 2 -2 11 -80 20 -174 8
-93 20 -208 26 -256 l12 -87 -37 -50 c-117 -158 -206 -512 -184 -724 15 -136
27 -168 73 -194 70 -38 253 -93 348 -104 105 -13 158 -4 204 35 24 21 28 31
26 71 -2 60 -28 89 -172 188 -126 87 -231 184 -231 214 0 33 45 199 84 306 18
53 52 124 75 157 45 68 44 62 66 290 18 189 19 385 4 515 -5 50 -11 187 -13
305 -3 187 -6 225 -26 295 -12 44 -25 93 -28 109 -6 37 -9 37 217 -45 170 -62
176 -66 246 -130 60 -56 79 -67 119 -73 36 -6 59 -18 103 -57 78 -68 133 -79
133 -26 0 26 -23 50 -88 92 -85 56 -24 81 71 30 86 -48 137 -50 137 -6 0 25
-26 46 -99 81 -101 49 -58 83 45 36 65 -30 96 -33 115 -10 11 14 10 22 -9 55
-12 21 -22 52 -22 69 0 32 -37 80 -61 80 -7 0 -25 15 -40 32 -30 37 -31 36
-159 -10 -30 -11 -73 -25 -96 -31 -23 -6 -58 -24 -79 -41 -21 -16 -45 -30 -54
-30 -9 0 -66 22 -126 48 -61 27 -173 73 -250 102 -170 63 -182 70 -220 110
-48 52 -226 180 -268 192 -44 13 -121 77 -142 119 -19 35 -19 100 -1 143 7 18
41 73 75 123 77 113 103 185 103 278 -1 102 -27 170 -152 407 -122 231 -152
279 -208 334 -42 41 -166 104 -257 129 -82 23 -292 29 -370 11z m644 -1913
c23 -27 41 -53 41 -58 0 -12 -140 -56 -152 -49 -14 9 -9 35 18 95 15 33 33 59
40 59 7 0 31 -21 53 -47z"/>
<path d="M7163 2796 c-440 -84 -793 -435 -868 -865 -27 -152 -14 -355 31 -488
19 -57 178 -413 236 -528 102 -203 280 -377 482 -471 266 -122 608 -121 904 4
163 68 378 245 489 402 65 93 140 253 170 367 23 87 26 118 27 268 1 145 -2
183 -22 259 -26 103 -82 227 -141 314 -59 88 -448 500 -528 561 -87 66 -226
135 -328 162 -102 27 -344 35 -452 15z"/>
</g>
</svg>
